<svg width="120" height="136" viewBox="0 0 120 136" fill="none" xmlns="http://www.w3.org/2000/svg">
<path d="M60 0L120 33.938V101.829L60 135.767L0 101.829V33.938L60 0Z" fill="white"/>
<path d="M109.287 99.4884L61.9845 126.248V105.411L91.4573 89.1938L109.287 99.4884ZM112.527 96.5581V40.6047L95.2248 50.6046V86.5736L112.527 96.5581ZM10.5271 99.4884L57.8294 126.248V105.411L28.3411 89.1938L10.5271 99.4884ZM7.2868 96.5581V40.6047L24.5891 50.6046V86.5736L7.2868 96.5581ZM9.31781 36.9767L57.8294 9.53488V29.6744L26.7442 46.7752L26.4961 46.9147L9.31781 36.9767ZM110.496 36.9767L61.9845 9.53488V29.6744L93.0697 46.7597L93.3178 46.8992L110.496 36.9767Z" fill="#8ED6FB"/>
<path d="M57.8295 100.667L28.7442 84.6667V52.9922L57.8295 69.7829V100.667ZM61.9845 100.667L91.0698 84.6822V52.9922L61.9845 69.7829V100.667ZM30.7132 49.3333L59.907 33.2868L89.1008 49.3333L59.907 66.186L30.7132 49.3333Z" fill="#1C78C0"/>
</svg>
